<svg xmlns="http://www.w3.org/2000/svg" width="50" height="42" viewBox="0 0 50 42">
    <defs>
        <linearGradient id="hm8g1pnpla" x1="21.772%" x2="83.939%" y1="71.407%" y2="23.931%">
            <stop offset="0%" stop-color="#EE4823"/>
            <stop offset="17%" stop-color="#EF4F22"/>
            <stop offset="42%" stop-color="#F16121"/>
            <stop offset="70%" stop-color="#F57F1E"/>
            <stop offset="100%" stop-color="#FAA61A"/>
        </linearGradient>
    </defs>
    <g fill="none" fill-rule="evenodd">
        <g fill-rule="nonzero">
            <g>
                <g>
                    <g>
                        <path fill="url(#hm8g1pnpla)" d="M39.145 16.325c-2.947 0-5.604 1.77-6.731 4.483-1.127 2.713-.503 5.836 1.582 7.912 2.086 2.076 5.22 2.695 7.942 1.569 2.722-1.126 4.495-3.776 4.492-6.713 0-1.924-.768-3.77-2.135-5.13-1.366-1.36-3.219-2.124-5.15-2.121z" transform="translate(-600 -968) translate(530 930) translate(70 38)"/>
                        <path fill="#FFF" d="M48.24 13.829c-.047 0-.091-.019-.124-.053-.032-.033-.049-.079-.047-.125v-1.07l-.443.729c-.025.042-.068.072-.116.083-.05.01-.1 0-.14-.029-.026-.011-.048-.03-.063-.054l-.443-.728v1.038c0 .077-.063.14-.14.14-.077 0-.14-.063-.14-.14v-1.558c0-.047.02-.092.056-.124.036-.03.084-.045.13-.038.11 0 .14 0 .195.124l.56.93.568-.93c.032-.078.11-.127.194-.124.047-.004.093.01.128.041.036.031.057.075.058.121v1.589c.005.047-.01.094-.04.13-.031.037-.075.06-.123.063l-.07-.015zm-2.589 0c-.045-.002-.088-.022-.118-.055-.031-.034-.047-.078-.045-.123v-1.41h-.459c-.085-.004-.155-.07-.163-.155 0-.09.073-.163.163-.163h1.198c.09 0 .163.073.163.163 0 .085-.07.155-.156.155h-.45v1.41c.002.083-.052.156-.133.178zM39.146 33.315c-5.408-.021-9.776-4.406-9.757-9.795.018-5.39 4.416-9.744 9.824-9.729 5.408.016 9.78 4.396 9.767 9.786-.006 2.591-1.046 5.074-2.89 6.901-1.846 1.827-4.344 2.848-6.944 2.837zm0-17.044c-2.948 0-5.604 1.77-6.731 4.483-1.127 2.713-.503 5.836 1.582 7.912 2.085 2.076 5.22 2.695 7.942 1.569 2.722-1.126 4.494-3.776 4.491-6.713-.03-3.986-3.284-7.201-7.284-7.197v-.054zM26.185 31.378V1.976c.072-.496-.135-.99-.54-1.287-.404-.297-.94-.348-1.393-.132-.453.216-.75.663-.773 1.163-.008.085-.008.17 0 .256v29.44c-.032.722.51 1.342 1.231 1.41.722.069 1.37-.44 1.475-1.154.01-.098.01-.196 0-.294zM19.732 23.576c.008-4.715-3.36-8.764-8.011-9.63-4.65-.865-9.259 1.7-10.958 6.1-1.699 4.4-.005 9.382 4.028 11.847 4.033 2.464 9.257 1.71 12.422-1.794v1.302c.018 1.932-.736 3.793-2.098 5.17-1.36 1.376-3.216 2.156-5.156 2.166-.472-.037-.925.193-1.173.596-.247.402-.247.909 0 1.311.248.403.7.633 1.173.596 5.412-.004 9.796-4.377 9.796-9.77l-.023-7.894zm-9.796 7.259c-2.947.003-5.606-1.764-6.736-4.476-1.13-2.712-.509-5.836 1.574-7.914 2.083-2.078 5.217-2.7 7.94-1.577 2.723 1.123 4.499 3.77 4.499 6.708.002 1.924-.764 3.77-2.129 5.132-1.365 1.362-3.217 2.127-5.148 2.127z" transform="translate(-600 -968) translate(530 930) translate(70 38)"/>
                    </g>
                </g>
            </g>
        </g>
    </g>
</svg>
