<svg xmlns="http://www.w3.org/2000/svg" width="21" height="18" viewBox="0 0 21 18">
    <g fill="none" fill-rule="evenodd">
        <g fill="#AAA" fill-rule="nonzero">
            <g>
                <g>
                    <path d="M0 14.516c0 .8.264 1.479.791 2.039.528.559 1.17.839 1.927.839h14.564c.757 0 1.4-.28 1.927-.84.527-.559.791-1.238.791-2.038V2.926c0-.8-.266-1.487-.8-2.063C18.669.288 18.03 0 17.284 0H2.718C1.972 0 1.333.288.8.863.268 1.44.001 2.126.001 2.926v11.59H0zm7.274-2.094V5.02c0-.074.021-.133.064-.176.032-.01.059-.016.08-.016l.08.016 6.97 3.71c.043.042.065.095.065.16 0 .042-.022.085-.065.127l-6.97 3.71c-.021.02-.043.03-.064.03-.043 0-.075-.01-.096-.03-.043-.044-.065-.086-.065-.129h.001z" transform="translate(-112 -1040) translate(0 979) translate(112.5 61)"/>
                </g>
            </g>
        </g>
    </g>
</svg>
